<svg xmlns="http://www.w3.org/2000/svg" fill="none" viewBox="0 0 814 893" width="32" height="32">
  <path fill="#515151" d="m605 137-29-16c-15-9-34-4-43 11l-89 154c-8 15-3 34 12 43l29 16c15 9 34 4 42-11l89-154c9-15 4-34-11-43Zm-23 295L332 287c-15-8-34-3-42 12l-21 36c-9 15-4 34 11 42l250 145c15 8 34 3 43-12l21-36c8-15 3-34-12-42Z"/>
  <path fill="#515151" fill-rule="evenodd" d="M242 381C175 493 97 541 22 599c30 36 64 69 101 98l117-114-79 142c93 64 197 103 307 131-9-108 28-205 78-299L242 381Z" clip-rule="evenodd"/>
  <path fill="#515151" fill-rule="evenodd" d="M242 381C175 493 97 541 22 599c30 36 64 69 101 98l117-114-79 142c93 64 197 103 307 131-9-108 28-205 78-299L242 381Zm226-135 83 48-39 67-83-48 39-67Z" clip-rule="evenodd"/>
</svg>
